<svg width="11" height="7" viewBox="0 0 11 7" fill="none" xmlns="http://www.w3.org/2000/svg">
<path fill-rule="evenodd" clip-rule="evenodd" d="M10.707 6.20704C10.5195 6.39451 10.2652 6.49983 10 6.49983C9.73484 6.49983 9.48053 6.39451 9.293 6.20704L6 2.91404L2.707 6.20704C2.61475 6.30255 2.50441 6.37873 2.3824 6.43114C2.2604 6.48355 2.12918 6.51114 1.9964 6.51229C1.86362 6.51344 1.73194 6.48814 1.60905 6.43786C1.48615 6.38758 1.3745 6.31333 1.28061 6.21944C1.18671 6.12554 1.11246 6.01389 1.06218 5.89099C1.0119 5.7681 0.986595 5.63642 0.987749 5.50364C0.988903 5.37086 1.01649 5.23964 1.0689 5.11764C1.12131 4.99563 1.19749 4.88529 1.293 4.79304L5.293 0.793041C5.48053 0.60557 5.73484 0.500254 6 0.500254C6.26516 0.500254 6.51947 0.60557 6.707 0.793041L10.707 4.79304C10.8945 4.98057 10.9998 5.23488 10.9998 5.50004C10.9998 5.76521 10.8945 6.01951 10.707 6.20704Z" fill="#3F3F46"/>
</svg>
