<svg width="11" height="7" viewBox="0 0 11 7" fill="none" xmlns="http://www.w3.org/2000/svg">
<path fill-rule="evenodd" clip-rule="evenodd" d="M0.293 0.792959C0.480528 0.605488 0.734836 0.500173 1 0.500173C1.26516 0.500173 1.51947 0.605488 1.707 0.792959L5 4.08596L8.293 0.792959C8.38525 0.697449 8.49559 0.621267 8.6176 0.568858C8.7396 0.516449 8.87082 0.488862 9.0036 0.487709C9.13638 0.486555 9.26806 0.511856 9.39095 0.562137C9.51385 0.612418 9.6255 0.686671 9.71939 0.780564C9.81329 0.874457 9.88754 0.986109 9.93782 1.10901C9.9881 1.2319 10.0134 1.36358 10.0123 1.49636C10.0111 1.62914 9.98351 1.76036 9.9311 1.88236C9.87869 2.00437 9.80251 2.11471 9.707 2.20696L5.707 6.20696C5.51947 6.39443 5.26516 6.49975 5 6.49975C4.73484 6.49975 4.48053 6.39443 4.293 6.20696L0.293 2.20696C0.105529 2.01943 0.000213623 1.76512 0.000213623 1.49996C0.000213623 1.23479 0.105529 0.980487 0.293 0.792959V0.792959Z" fill="#3F3F46"/>
</svg>
